<?xml version="1.0" encoding="utf-8"?>
<!-- Generator: Adobe Illustrator 22.1.0, SVG Export Plug-In . SVG Version: 6.00 Build 0)  -->
<svg version="1.1" id="Layer_1" xmlns="http://www.w3.org/2000/svg" xmlns:xlink="http://www.w3.org/1999/xlink" x="0px" y="0px"
	 width="364.6px" height="180px" viewBox="0 0 364.6 180" style="enable-background:new 0 0 364.6 180;" xml:space="preserve">
<style type="text/css">
	.st0{fill:#FFFFFF;}
</style>
<g>
	<path class="st0" d="M26.1,163c0,0.9-0.2,1.8-0.6,2.5s-1,1.3-1.8,1.7s-1.8,0.6-2.8,0.6h-3.6v5.2h-3.1v-14.6h6.6
		c1.8,0,3.1,0.4,4,1.2C25.6,160.4,26.1,161.5,26.1,163z M23,163.1c0-1.5-0.9-2.3-2.7-2.3h-3.2v4.8h3.2c0.8,0,1.5-0.2,2-0.6
		C22.8,164.5,23,163.9,23,163.1z"/>
	<path class="st0" d="M37.3,173l-1.3-3.7h-5.6l-1.3,3.7H26l5.3-14.6H35l5.3,14.6H37.3z M33.2,160.6l-0.1,0.2
		c-0.1,0.2-0.2,0.5-0.2,0.9s-0.7,2.1-1.8,5.3h4.2l-1.4-4.2l-0.4-1.4L33.2,160.6z"/>
	<path class="st0" d="M52.4,173l-3.4-5.6h-3.6v5.6h-3.1v-14.6h7.3c1.8,0,3.1,0.4,4.1,1.1c0.9,0.8,1.4,1.8,1.4,3.2
		c0,1-0.3,1.9-0.9,2.7s-1.4,1.2-2.4,1.5l4,6.2L52.4,173L52.4,173z M52,162.9c0-1.4-0.9-2.1-2.7-2.1h-3.9v4.3h4
		c0.9,0,1.5-0.2,1.9-0.6C51.8,164.1,52,163.6,52,162.9z"/>
	<path class="st0" d="M64.5,160.8v6.1v6.1H63h-1.5v-6.1v-6.1h-2.4h-2.4v-1.2v-1.2H63h6.3v1.2v1.2h-2.4H64.5z"/>
	<path class="st0" d="M92.3,165.6c0,1.5-0.3,2.9-0.9,4c-0.6,1.2-1.5,2-2.6,2.7c-1.1,0.6-2.4,0.9-3.9,0.9c-2.3,0-4.1-0.7-5.4-2
		c-1.3-1.4-2-3.2-2-5.6c0-2.4,0.7-4.2,2-5.5c1.3-1.3,3.1-2,5.4-2s4.1,0.7,5.4,2C91.6,161.5,92.3,163.3,92.3,165.6z M89.2,165.6
		c0-1.6-0.4-2.8-1.1-3.7s-1.8-1.4-3.2-1.4c-1.4,0-2.4,0.4-3.2,1.3s-1.1,2.1-1.1,3.7c0,1.6,0.4,2.9,1.2,3.8c0.8,0.9,1.8,1.4,3.1,1.4
		c1.4,0,2.4-0.4,3.2-1.4C88.8,168.6,89.2,167.3,89.2,165.6z"/>
	<path class="st0" d="M98,160.8v4.5h7.5v2.4H98v5.4H95v-14.6h10.8v2.4H98z"/>
	<path class="st0" d="M122.3,170.8c1.9,0,3.1-0.9,3.9-2.8l2.7,1c-0.6,1.4-1.4,2.5-2.5,3.2s-2.4,1-4,1c-2.4,0-4.2-0.7-5.5-2
		c-1.3-1.3-1.9-3.2-1.9-5.6c0-2.4,0.6-4.2,1.9-5.5s3-1.9,5.4-1.9c1.7,0,3.1,0.3,4.2,1s1.8,1.7,2.3,3L126,163
		c-0.2-0.7-0.7-1.3-1.4-1.8c-0.7-0.4-1.5-0.6-2.4-0.6c-1.4,0-2.4,0.4-3.2,1.3s-1.1,2.1-1.1,3.8c0,1.7,0.4,3,1.1,3.9
		C119.9,170.4,120.9,170.8,122.3,170.8z"/>
	<path class="st0" d="M141.1,173l-1.3-3.7h-5.6l-1.3,3.7h-3.1l5.3-14.6h3.6l5.3,14.6H141.1z M137,160.6l-0.1,0.2
		c-0.1,0.2-0.1,0.5-0.2,0.9s-0.7,2.1-1.8,5.3h4.2l-1.4-4.2l-0.4-1.4L137,160.6z"/>
	<path class="st0" d="M156.2,173l-3.4-5.6h-3.6v5.6h-3.1v-14.6h7.3c1.8,0,3.1,0.4,4.1,1.1s1.4,1.8,1.4,3.2c0,1-0.3,1.9-0.9,2.7
		s-1.4,1.2-2.4,1.5l4,6.2L156.2,173L156.2,173z M155.9,162.9c0-1.4-0.9-2.1-2.7-2.1h-3.9v4.3h4c0.9,0,1.5-0.2,1.9-0.6
		C155.6,164.1,155.9,163.6,155.9,162.9z"/>
	<path class="st0" d="M170.8,173l-6.4-11.3c0.1,1.1,0.2,2,0.2,2.6v8.6h-2.7v-14.6h3.5l6.5,11.4c-0.1-1.1-0.2-2-0.2-2.9v-8.5h2.7V173
		H170.8z"/>
	<path class="st0" d="M178.1,173v-14.6h11.5v2.4h-8.4v3.7h7.8v2.4h-7.8v3.9h8.9v2.4L178.1,173L178.1,173z"/>
	<path class="st0" d="M199.7,170.8c0.8,0,1.6-0.1,2.3-0.4c0.8-0.2,1.3-0.5,1.7-0.9v-2h-3.6v-2.3h6.4v5.4c-0.8,0.8-1.8,1.4-3,1.9
		s-2.6,0.7-3.9,0.7c-2.4,0-4.2-0.7-5.5-2s-1.9-3.2-1.9-5.6c0-2.4,0.6-4.3,1.9-5.6c1.3-1.3,3.1-1.9,5.6-1.9c3.4,0,5.6,1.3,6.6,3.8
		l-2.8,0.9c-0.3-0.7-0.8-1.3-1.4-1.7c-0.6-0.4-1.4-0.6-2.3-0.6c-1.4,0-2.5,0.4-3.3,1.3s-1.1,2.1-1.1,3.8c0,1.7,0.4,2.9,1.2,3.8
		C197.2,170.4,198.3,170.8,199.7,170.8z"/>
	<path class="st0" d="M210,173v-7.3v-7.3h1.5h1.5v7.3v7.3h-1.5H210z"/>
	<path class="st0" d="M216.7,173v-14.6h11.5v2.4h-8.4v3.7h7.8v2.4h-7.8v3.9h8.9v2.4L216.7,173L216.7,173z"/>
	<path class="st0" d="M239.5,173v-7.3v-7.3h1.5h1.5v6.1v6.1h3.9h3.9v1.2v1.2H245H239.5z"/>
	<path class="st0" d="M252.6,173v-14.6h11.5v2.4h-8.5v3.7h7.8v2.4h-7.8v3.9h8.9v2.4L252.6,173L252.6,173z"/>
	<path class="st0" d="M277.4,173l-1.3-3.7h-5.6l-1.3,3.7h-3.1l5.3-14.6h3.6l5.3,14.6H277.4z M273.3,160.6l-0.1,0.2
		c-0.1,0.2-0.1,0.5-0.2,0.9s-0.7,2.1-1.8,5.3h4.2l-1.5-4.2l-0.5-1.4L273.3,160.6z"/>
	<path class="st0" d="M292.5,173l-3.4-5.6h-3.6v5.6h-3.1v-14.6h7.3c1.8,0,3.1,0.4,4,1.1s1.4,1.8,1.4,3.2c0,1-0.3,1.9-0.9,2.7
		s-1.4,1.2-2.4,1.5l4,6.2L292.5,173L292.5,173z M292.2,162.9c0-1.4-0.9-2.1-2.7-2.1h-3.9v4.3h4c0.9,0,1.5-0.2,2-0.6
		C291.9,164.1,292.2,163.6,292.2,162.9z"/>
	<path class="st0" d="M307.4,173l-6.4-11.3c0.1,1.1,0.2,2,0.2,2.6v8.6h-2.7v-14.6h3.5l6.5,11.4c-0.1-1.1-0.2-2-0.2-2.9v-8.5h2.7V173
		H307.4z"/>
	<path class="st0" d="M314.8,173v-7.3v-7.3h1.5h1.5v7.3v7.3h-1.5H314.8z"/>
	<path class="st0" d="M330.5,173l-6.4-11.3c0.1,1.1,0.2,2,0.2,2.6v8.6h-2.7v-14.6h3.5l6.5,11.4c-0.1-1.1-0.2-2-0.2-2.9v-8.5h2.7V173
		H330.5z"/>
	<path class="st0" d="M344.6,170.8c0.8,0,1.6-0.1,2.3-0.4c0.8-0.2,1.3-0.5,1.7-0.9v-2h-3.6v-2.3h6.4v5.4c-0.8,0.8-1.8,1.4-3,1.9
		s-2.5,0.7-3.9,0.7c-2.4,0-4.2-0.7-5.5-2s-1.9-3.2-1.9-5.6c0-2.4,0.6-4.3,1.9-5.6c1.3-1.3,3.1-1.9,5.6-1.9c3.4,0,5.6,1.3,6.6,3.8
		l-2.8,0.9c-0.3-0.7-0.8-1.3-1.4-1.7c-0.6-0.4-1.4-0.6-2.3-0.6c-1.4,0-2.5,0.4-3.3,1.3s-1.1,2.1-1.1,3.8c0,1.7,0.4,2.9,1.2,3.8
		C342.1,170.4,343.2,170.8,344.6,170.8z"/>
</g>
<polygon class="st0" points="351.4,143.7 182.7,143.7 14.1,143.7 14.1,142.5 14.1,141.4 182.7,141.4 351.4,141.4 351.4,142.5 "/>
<g>
	<path class="st0" d="M229.9,66.6c1.8,1.2,4.3,2.1,7,2.1c4.8,0,7.7-2.7,7.7-6.6c0-3.6-1.9-5.7-6.5-7.5c-5.1-1.8-8.2-4.5-8.2-8.8
		c0-4.7,3.8-8.1,9.3-8.1c3,0,5.3,0.8,6.4,1.5l-0.9,1.9c-0.9-0.6-2.9-1.5-5.6-1.5c-5.2,0-6.9,3.3-6.9,5.8c0,3.6,2,5.4,6.6,7.2
		c5.3,2.1,8.1,4.5,8.1,9.3c0,4.7-3.3,8.8-10.1,8.8c-2.8,0-6-0.9-7.6-2.2L229.9,66.6z"/>
	<path class="st0" d="M268.4,69.1c-1,0.5-3.4,1.5-6.7,1.5c-6.5,0-10.9-4.8-10.9-11.6c0-7.2,4.9-12.1,11.7-12.1c2.8,0,5.1,0.8,6,1.4
		l-0.8,1.8c-1.1-0.6-2.9-1.3-5.4-1.3c-6.1,0-9.3,4.7-9.3,10c0,6,3.8,9.9,9,9.9c2.7,0,4.5-0.8,5.7-1.3L268.4,69.1z"/>
	<path class="st0" d="M273.7,36.4h2.3v15h0.1c0.7-1.3,1.8-2.5,3.1-3.3c1.3-0.8,2.9-1.3,4.6-1.3c2.1,0,7.9,1.1,7.9,9.6v13.7h-2.3
		V56.6c0-4.1-1.6-7.8-6.3-7.8c-3.2,0-5.9,2.3-6.9,5.1c-0.2,0.7-0.3,1.3-0.3,2.3v13.9h-2.3L273.7,36.4L273.7,36.4z"/>
	<path class="st0" d="M318.4,58.5c0,8.5-5.8,12.1-10.9,12.1c-5.9,0-10.4-4.6-10.4-11.7c0-7.8,5.1-12.1,10.8-12.1
		C314.2,46.8,318.4,51.5,318.4,58.5z M299.4,58.8c0,5.7,3.6,10,8.3,10c4.7,0,8.5-4.3,8.5-10.1c0-4.2-2.3-9.9-8.4-9.9
		C302,48.7,299.4,53.9,299.4,58.8z"/>
	<path class="st0" d="M343.5,58.5c0,8.5-5.8,12.1-10.9,12.1c-5.9,0-10.4-4.6-10.4-11.7c0-7.8,5.1-12.1,10.8-12.1
		C339.2,46.8,343.5,51.5,343.5,58.5z M324.5,58.8c0,5.7,3.6,10,8.3,10c4.7,0,8.5-4.3,8.5-10.1c0-4.2-2.3-9.9-8.4-9.9
		C327.1,48.7,324.5,53.9,324.5,58.8z"/>
	<path class="st0" d="M349.2,36.4h1.1h1.1v16.8v16.8h-1.1h-1.1V53.2V36.4z"/>
</g>
<path class="st0" d="M214.7,6H14.1v100.3h120.4c8.5,5.8,30.2,20.4,30.2,20.4s-3.6-13.8-5.1-20.4h55.2L214.7,6L214.7,6z M76.5,39.3
	H48.3v11.5h27.2v8.8H48.3V71h28.2v9.3H38.9c0-16.7,0-33.5,0-50.2h37.6L76.5,39.3L76.5,39.3z M139.5,80.4H130V44l-16.3,21.8h-1.9
	l-16-21.9v36.5h-9.5V30.2h10.9l15.7,21.6l15.7-21.6h10.8L139.5,80.4L139.5,80.4z M173.9,81.5c-18.6,0-26.5-12.8-26.6-25.9
	c-0.1-13.1,8.5-26.5,26.6-26.5c6.8,0,13.3,2.6,18.4,7.7l-6.3,6.1c-3.3-3.2-7.7-4.7-12.1-4.7c-12.1,0-17.4,9-17.3,17.4
	c0.1,8.3,4.9,17,17.3,17c4.4,0,9.3-1.8,12.6-5.1L193,74C187.9,79.1,181.2,81.5,173.9,81.5z"/>
</svg>
